<svg xmlns="http://www.w3.org/2000/svg" version="1.1" xmlns:xlink="http://www.w3.org/1999/xlink" xmlns:svgjs="http://svgjs.dev/svgjs" viewBox="0 0 2400 800" opacity="1"><defs><linearGradient x1="50%" y1="0%" x2="50%" y2="100%" id="sssurf-grad"><stop stop-color="hsl(180, 69%, 40%)" stop-opacity="1" offset="0%"></stop><stop stop-color="hsl(180, 69%, 60%)" stop-opacity="1" offset="100%"></stop></linearGradient></defs><g fill="url(#sssurf-grad)" transform="matrix(1,0,0,1,9.109130859375,178.50787353515625)"><path d="M-10,10C37.53787878787879,15,125.18939393939395,40.875,218.1818181818182,34C311.17424242424244,27.125,345.4545454545455,-24.041666666666668,436.3636363636364,-23C527.2727272727273,-21.958333333333332,563.6363636363636,36.5,654.5454545454545,39C745.4545454545454,41.5,781.8181818181818,-7.041666666666667,872.7272727272727,-11C963.6363636363637,-14.958333333333332,1000.0000000000001,21.666666666666668,1090.909090909091,20C1181.818181818182,18.333333333333332,1218.181818181818,-23.375,1309.090909090909,-19C1400,-14.625,1436.3636363636363,39.125,1527.2727272727273,41C1618.1818181818182,42.875,1654.5454545454545,-7.916666666666666,1745.4545454545455,-10C1836.3636363636365,-12.083333333333334,1872.7272727272727,30.583333333333332,1963.6363636363637,31C2054.5454545454545,31.416666666666668,2090.909090909091,-11.541666666666668,2181.818181818182,-8C2272.727272727273,-4.458333333333333,2302.462121212121,-37,2400,48C2497.537878787879,133,3254.1666666666665,222.5,2650,400C2045.8333333333335,577.5,156.25,795.8333333333334,-500,900" transform="matrix(1,0,0,1,0,61)" opacity="0.05"></path><path d="M-10,10C37.53787878787879,15,125.18939393939395,40.875,218.1818181818182,34C311.17424242424244,27.125,345.4545454545455,-24.041666666666668,436.3636363636364,-23C527.2727272727273,-21.958333333333332,563.6363636363636,36.5,654.5454545454545,39C745.4545454545454,41.5,781.8181818181818,-7.041666666666667,872.7272727272727,-11C963.6363636363637,-14.958333333333332,1000.0000000000001,21.666666666666668,1090.909090909091,20C1181.818181818182,18.333333333333332,1218.181818181818,-23.375,1309.090909090909,-19C1400,-14.625,1436.3636363636363,39.125,1527.2727272727273,41C1618.1818181818182,42.875,1654.5454545454545,-7.916666666666666,1745.4545454545455,-10C1836.3636363636365,-12.083333333333334,1872.7272727272727,30.583333333333332,1963.6363636363637,31C2054.5454545454545,31.416666666666668,2090.909090909091,-11.541666666666668,2181.818181818182,-8C2272.727272727273,-4.458333333333333,2302.462121212121,-37,2400,48C2497.537878787879,133,3254.1666666666665,222.5,2650,400C2045.8333333333335,577.5,156.25,795.8333333333334,-500,900" transform="matrix(1,0,0,1,0,122)" opacity="0.29"></path><path d="M-10,10C37.53787878787879,15,125.18939393939395,40.875,218.1818181818182,34C311.17424242424244,27.125,345.4545454545455,-24.041666666666668,436.3636363636364,-23C527.2727272727273,-21.958333333333332,563.6363636363636,36.5,654.5454545454545,39C745.4545454545454,41.5,781.8181818181818,-7.041666666666667,872.7272727272727,-11C963.6363636363637,-14.958333333333332,1000.0000000000001,21.666666666666668,1090.909090909091,20C1181.818181818182,18.333333333333332,1218.181818181818,-23.375,1309.090909090909,-19C1400,-14.625,1436.3636363636363,39.125,1527.2727272727273,41C1618.1818181818182,42.875,1654.5454545454545,-7.916666666666666,1745.4545454545455,-10C1836.3636363636365,-12.083333333333334,1872.7272727272727,30.583333333333332,1963.6363636363637,31C2054.5454545454545,31.416666666666668,2090.909090909091,-11.541666666666668,2181.818181818182,-8C2272.727272727273,-4.458333333333333,2302.462121212121,-37,2400,48C2497.537878787879,133,3254.1666666666665,222.5,2650,400C2045.8333333333335,577.5,156.25,795.8333333333334,-500,900" transform="matrix(1,0,0,1,0,183)" opacity="0.53"></path><path d="M-10,10C37.53787878787879,15,125.18939393939395,40.875,218.1818181818182,34C311.17424242424244,27.125,345.4545454545455,-24.041666666666668,436.3636363636364,-23C527.2727272727273,-21.958333333333332,563.6363636363636,36.5,654.5454545454545,39C745.4545454545454,41.5,781.8181818181818,-7.041666666666667,872.7272727272727,-11C963.6363636363637,-14.958333333333332,1000.0000000000001,21.666666666666668,1090.909090909091,20C1181.818181818182,18.333333333333332,1218.181818181818,-23.375,1309.090909090909,-19C1400,-14.625,1436.3636363636363,39.125,1527.2727272727273,41C1618.1818181818182,42.875,1654.5454545454545,-7.916666666666666,1745.4545454545455,-10C1836.3636363636365,-12.083333333333334,1872.7272727272727,30.583333333333332,1963.6363636363637,31C2054.5454545454545,31.416666666666668,2090.909090909091,-11.541666666666668,2181.818181818182,-8C2272.727272727273,-4.458333333333333,2302.462121212121,-37,2400,48C2497.537878787879,133,3254.1666666666665,222.5,2650,400C2045.8333333333335,577.5,156.25,795.8333333333334,-500,900" transform="matrix(1,0,0,1,0,244)" opacity="0.76"></path><path d="M-10,10C37.53787878787879,15,125.18939393939395,40.875,218.1818181818182,34C311.17424242424244,27.125,345.4545454545455,-24.041666666666668,436.3636363636364,-23C527.2727272727273,-21.958333333333332,563.6363636363636,36.5,654.5454545454545,39C745.4545454545454,41.5,781.8181818181818,-7.041666666666667,872.7272727272727,-11C963.6363636363637,-14.958333333333332,1000.0000000000001,21.666666666666668,1090.909090909091,20C1181.818181818182,18.333333333333332,1218.181818181818,-23.375,1309.090909090909,-19C1400,-14.625,1436.3636363636363,39.125,1527.2727272727273,41C1618.1818181818182,42.875,1654.5454545454545,-7.916666666666666,1745.4545454545455,-10C1836.3636363636365,-12.083333333333334,1872.7272727272727,30.583333333333332,1963.6363636363637,31C2054.5454545454545,31.416666666666668,2090.909090909091,-11.541666666666668,2181.818181818182,-8C2272.727272727273,-4.458333333333333,2302.462121212121,-37,2400,48C2497.537878787879,133,3254.1666666666665,222.5,2650,400C2045.8333333333335,577.5,156.25,795.8333333333334,-500,900" transform="matrix(1,0,0,1,0,305)" opacity="1.00"></path></g></svg>