<?xml version="1.0" standalone="no"?>
<!DOCTYPE svg PUBLIC "-//W3C//DTD SVG 20010904//EN"
 "http://www.w3.org/TR/2001/REC-SVG-20010904/DTD/svg10.dtd">
<svg version="1.0" xmlns="http://www.w3.org/2000/svg"
 width="400.000000pt" height="400.000000pt" viewBox="0 0 400.000000 400.000000"
 preserveAspectRatio="xMidYMid meet">
<metadata>
Created by potrace 1.14, written by Peter Selinger 2001-2017
</metadata>
<g transform="translate(0.000000,400.000000) scale(0.100000,-0.100000)"
fill="#000000" stroke="none">
<path d="M1870 3276 c-58 -28 -123 -59 -145 -69 -22 -9 -51 -23 -65 -32 -14
-8 -146 -73 -295 -144 -426 -203 -464 -222 -470 -231 -3 -5 -14 -47 -24 -92
-11 -46 -29 -125 -40 -177 -12 -51 -20 -96 -17 -98 4 -4 345 -6 545 -4 l43 1
-198 146 c-110 80 -205 151 -213 159 -12 11 1 20 80 58 164 78 468 224 764
367 83 40 155 73 160 73 6 0 69 -28 140 -63 72 -34 180 -86 240 -115 61 -29
191 -92 290 -140 99 -48 217 -105 263 -126 46 -21 81 -43 78 -48 -4 -5 -37
-31 -74 -57 -37 -27 -74 -54 -82 -61 -8 -7 -71 -53 -139 -103 -74 -54 -116
-90 -105 -91 110 -3 565 -1 569 3 5 4 -73 370 -79 374 0 0 -35 17 -76 36 -41
20 -160 77 -264 128 -104 50 -234 113 -290 140 -56 26 -181 87 -279 134 -98
47 -185 86 -195 85 -9 0 -64 -24 -122 -53z"/>
<path d="M270 2277 c0 -12 137 -265 178 -327 12 -18 16 -52 18 -125 1 -55 2
-103 3 -108 0 -4 25 -6 54 -5 l52 3 3 102 c3 98 4 105 42 172 129 227 160 287
153 294 -3 4 -28 7 -54 7 -43 0 -49 -3 -67 -32 -10 -18 -43 -74 -73 -125 -29
-51 -57 -89 -61 -85 -4 4 -38 59 -76 122 l-68 115 -52 3 c-39 2 -52 0 -52 -11z"/>
<path d="M2035 2280 c-4 -6 26 -68 65 -138 135 -239 127 -216 129 -322 1 -52
5 -98 10 -103 4 -4 28 -7 52 -5 l44 3 3 103 c2 88 6 109 26 140 63 101 176
314 171 322 -4 6 -28 10 -54 10 l-49 0 -72 -125 c-39 -69 -73 -125 -75 -125
-1 0 -31 48 -66 108 -34 59 -69 115 -77 125 -17 19 -96 24 -107 7z"/>
<path d="M946 2135 c-48 -17 -82 -50 -91 -87 -7 -27 -6 -28 39 -28 32 0 51 6
63 19 41 44 120 43 139 -1 20 -45 8 -55 -79 -68 -96 -14 -150 -39 -178 -83
-34 -54 -10 -130 51 -162 61 -31 156 -23 199 16 19 18 20 18 23 -4 2 -18 10
-22 47 -24 25 -2 48 2 51 8 11 17 4 311 -7 339 -31 74 -159 111 -257 75z m159
-257 c-8 -47 -37 -82 -77 -92 -46 -12 -92 9 -96 45 -5 43 44 71 133 77 l45 3
-5 -33z"/>
<path d="M1467 2126 c-40 -20 -47 -21 -45 -7 2 13 -6 16 -47 16 l-50 0 0 -210
0 -210 50 0 50 0 5 153 c5 149 6 154 30 172 47 36 102 21 119 -32 6 -18 10
-89 10 -157 0 -68 4 -128 9 -133 5 -5 29 -8 53 -6 l43 3 1 147 c1 142 2 149
25 173 32 34 85 31 112 -5 16 -22 19 -45 19 -161 1 -75 4 -142 9 -148 4 -8 24
-11 51 -9 l44 3 3 143 c3 165 -7 213 -51 253 -55 51 -157 48 -209 -6 l-22 -23
-28 27 c-50 46 -112 53 -181 17z"/>
<path d="M2721 2139 c-18 -6 -45 -17 -58 -26 -28 -18 -57 -69 -48 -83 10 -16
93 -12 102 4 27 48 116 51 142 5 24 -43 10 -55 -76 -68 -132 -20 -197 -65
-197 -138 0 -71 60 -124 145 -128 52 -2 128 26 130 49 1 6 4 0 8 -14 7 -27 42
-37 87 -26 24 6 24 7 24 157 0 161 -8 197 -51 235 -44 39 -137 54 -208 33z
m144 -266 c-12 -70 -82 -111 -136 -82 -87 45 -21 112 115 118 27 1 28 0 21
-36z"/>
<path d="M3250 2139 c-13 -5 -32 -17 -41 -25 -15 -13 -17 -13 -22 6 -5 18 -12
21 -54 18 l-48 -3 -1 -200 c0 -110 1 -206 4 -212 5 -16 88 -17 98 -2 4 7 7 69
7 138 0 69 4 137 9 150 19 52 77 67 119 30 23 -20 24 -28 29 -172 l5 -152 45
-1 c25 -1 48 3 51 8 4 6 7 71 8 146 1 102 5 141 16 159 17 26 54 38 88 29 41
-10 51 -46 52 -189 0 -73 4 -138 8 -144 5 -7 25 -13 46 -13 21 0 43 6 47 13
11 14 10 231 0 300 -12 77 -75 127 -160 127 -26 0 -96 -37 -112 -58 -10 -14
-13 -13 -22 4 -23 43 -115 67 -172 43z"/>
<path d="M674 1558 c-3 -4 157 -209 354 -455 l358 -448 600 1 c329 1 604 2
611 3 6 0 109 124 229 274 120 149 280 350 356 445 76 95 138 176 138 180 0 6
-1092 9 -1122 3 -3 0 4 -22 17 -48 12 -27 31 -68 43 -93 48 -108 98 -217 259
-570 55 -119 124 -105 -516 -105 -308 0 -562 3 -565 6 -4 3 14 48 38 100 71
153 116 251 116 254 0 1 22 49 48 106 97 206 154 338 150 346 -4 10 -1108 11
-1114 1z"/>
</g>
</svg>
